<?xml version="1.0" standalone="no"?>
<!DOCTYPE svg PUBLIC "-//W3C//DTD SVG 20010904//EN"
 "http://www.w3.org/TR/2001/REC-SVG-20010904/DTD/svg10.dtd">
<svg version="1.0" xmlns="http://www.w3.org/2000/svg"
 width="162.000000pt" height="168.000000pt" viewBox="0 0 162.000000 168.000000"
 preserveAspectRatio="xMidYMid meet">

<g transform="translate(0.000000,168.000000) scale(0.100000,-0.100000)"
fill="#000000" stroke="none">
<path d="M0 840 l0 -840 810 0 810 0 0 840 0 840 -810 0 -810 0 0 -840z m946
58 l112 -248 -47 0 -48 0 -24 60 -24 60 -101 0 -101 0 -26 -60 -26 -60 -47 0
c-33 0 -45 4 -41 13 3 6 49 109 102 227 54 118 106 235 117 260 20 45 20 45
31 20 6 -14 62 -136 123 -272z"/>
<path d="M787 948 c-46 -103 -48 -98 27 -98 74 0 72 -9 23 100 l-24 55 -26
-57z"/>
</g>
</svg>
